<svg width="32" height="27" viewBox="0 0 32 27" fill="none" xmlns="http://www.w3.org/2000/svg">
<path fill-rule="evenodd" clip-rule="evenodd" d="M2.19983 11.4164C10.7897 7.67391 16.5177 5.20663 19.3837 4.01457C27.5667 0.610972 29.2671 0.0197313 30.3753 0.00020816C30.6191 -0.00408573 31.1641 0.0563235 31.5171 0.342789C31.8152 0.584675 31.8973 0.911429 31.9365 1.14076C31.9758 1.3701 32.0246 1.89253 31.9858 2.30074C31.5423 6.96 29.6236 18.2668 28.6474 23.4852C28.2344 25.6934 27.4211 26.4337 26.6337 26.5062C24.9226 26.6637 23.6232 25.3754 21.9659 24.289C19.3725 22.589 17.9074 21.5307 15.3901 19.8718C12.4809 17.9547 14.3668 16.901 16.0247 15.179C16.4586 14.7283 23.9979 7.87073 24.1439 7.24864C24.1621 7.17084 24.1791 6.88082 24.0068 6.72769C23.8345 6.57455 23.5802 6.62692 23.3967 6.66856C23.1366 6.7276 18.9936 9.46595 10.9678 14.8836C9.79182 15.6911 8.72666 16.0846 7.77232 16.0639C6.72023 16.0412 4.69644 15.4691 3.19196 14.98C1.34666 14.3802 -0.119957 14.0631 0.0077523 13.0444C0.074271 12.5137 0.804964 11.9711 2.19983 11.4164Z" fill="#171516"/>
</svg>
