<svg width="32" height="32" viewBox="0 0 32 32" fill="none" xmlns="http://www.w3.org/2000/svg">
<path fill-rule="evenodd" clip-rule="evenodd" d="M15.9985 0.789843C7.16339 0.789843 0 7.95323 0 16.7903C0 23.8594 4.58406 29.8559 10.942 31.9726C11.7425 32.119 12.0343 31.6249 12.0343 31.2006C12.0343 30.8215 12.0205 29.8147 12.0126 28.4798C7.56217 29.4463 6.62316 26.3346 6.62316 26.3346C5.89533 24.4861 4.84631 23.994 4.84631 23.994C3.3936 23.0019 4.95632 23.0216 4.95632 23.0216C6.56226 23.1345 7.40698 24.6707 7.40698 24.6707C8.83416 27.1155 11.1522 26.4093 12.0637 25.9997C12.2091 24.9664 12.6216 24.2612 13.0793 23.8614C9.52663 23.4577 5.79121 22.0845 5.79121 15.9535C5.79121 14.2071 6.41493 12.7789 7.43841 11.6602C7.2734 11.2555 6.72433 9.62891 7.59459 7.42577C7.59459 7.42577 8.93827 6.99556 11.995 9.0661C13.2709 8.71053 14.6401 8.53373 16.0005 8.52783C17.3589 8.53373 18.7281 8.71053 20.006 9.0661C23.0607 6.99556 24.4015 7.42577 24.4015 7.42577C25.2747 9.62891 24.7256 11.2555 24.5606 11.6602C25.5861 12.7789 26.2058 14.2071 26.2058 15.9535C26.2058 22.1003 22.4645 23.4528 18.9 23.8486C19.4746 24.3427 19.9864 25.319 19.9864 26.812C19.9864 28.9503 19.9667 30.6761 19.9667 31.2006C19.9667 31.6288 20.2545 32.1268 21.0668 31.9707C27.4199 29.85 32 23.8575 32 16.7903C32 7.95323 24.8356 0.789843 15.9985 0.789843Z" fill="#171516"/>
</svg>
