<svg width="32" height="27" viewBox="0 0 32 27" fill="none" xmlns="http://www.w3.org/2000/svg">
<path d="M28.7239 6.47314C28.7435 6.75525 28.7435 7.03735 28.7435 7.32206C28.7435 15.9971 22.1393 26.002 10.0635 26.002V25.9968C6.4962 26.002 3.00305 24.9802 0 23.0536C0.518708 23.116 1.04002 23.1472 1.56262 23.1485C4.51887 23.1511 7.39062 22.1592 9.71635 20.3327C6.90701 20.2794 4.44347 18.4476 3.58286 15.7735C4.56697 15.9633 5.58099 15.9243 6.5469 15.6604C3.48405 15.0416 1.28052 12.3505 1.28052 9.22529C1.28052 9.19668 1.28052 9.16938 1.28052 9.14208C2.19313 9.65039 3.21495 9.9325 4.26017 9.9637C1.37542 8.03577 0.486208 4.19811 2.22823 1.19766C5.56149 5.29922 10.4795 7.79266 15.7588 8.05657C15.2297 5.77633 15.9525 3.38689 17.6582 1.78397C20.3024 -0.70167 24.4612 -0.574268 26.9468 2.06867C28.4171 1.77877 29.8264 1.23926 31.116 0.474849C30.6259 1.99457 29.6002 3.28549 28.2299 4.10581C29.5313 3.9524 30.8027 3.604 32 3.07229C31.1186 4.39311 30.0084 5.54363 28.7239 6.47314Z" fill="#171516"/>
</svg>
